<svg id="Layer_1" data-name="Layer 1" xmlns="http://www.w3.org/2000/svg" xmlns:xlink="http://www.w3.org/1999/xlink" viewBox="0 0 32 32"><defs><style>.cls-1{fill:url(#linear-gradient);}.cls-2{fill:url(#linear-gradient-2);}</style><linearGradient id="linear-gradient" x1="17.02" y1="12.46" x2="19.14" y2="12.46" gradientUnits="userSpaceOnUse"><stop offset="0" stop-color="#44d9f2"/><stop offset="1" stop-color="#164bc1"/></linearGradient><linearGradient id="linear-gradient-2" x1="4.96" y1="16" x2="26.95" y2="16" xlink:href="#linear-gradient"/></defs><path class="cls-1" d="M18.08,11.39a1.07,1.07,0,1,0,1.06,1.06A1.06,1.06,0,0,0,18.08,11.39Zm0,1.42a.36.36,0,0,1,0-.71.36.36,0,1,1,0,.71Z"/><path class="cls-2" d="M25.53,10.68h.71A.71.71,0,0,0,27,10V6.43a.71.71,0,0,0-.71-.71h-.71a.71.71,0,0,0-.71.71v0a.92.92,0,0,0-.29,0H20.59A4.64,4.64,0,0,0,17.27,7.8a.86.86,0,0,0-.25.61.85.85,0,0,0,.85.85A.82.82,0,0,0,18.48,9a1.59,1.59,0,0,1,1.11-.46,1.69,1.69,0,0,1,1.68,1.69v2.63a1.07,1.07,0,0,0-.7,1v3.19H19.14V14.7a2.48,2.48,0,1,0-2.12,0v2.37H15.59A1.55,1.55,0,0,0,15.08,16l.27-.27a.84.84,0,0,0,.25-.6.86.86,0,0,0-.71-.85V8.35a1.6,1.6,0,0,0-.25-.86,1.6,1.6,0,0,0,.25-.86V5.72A.71.71,0,0,0,14.18,5h-.71a.71.71,0,0,0-.71.71v.91a1.53,1.53,0,0,0,.26.86,1.53,1.53,0,0,0-.26.86v5.89a.86.86,0,0,0-.71.85.84.84,0,0,0,.25.6l.27.27a1.64,1.64,0,0,0-.52,1.11H9.92V14.2a2.48,2.48,0,0,0,2.13-2.45V11A2.49,2.49,0,0,0,9.57,8.55H9.21v2.13H7.79V8.55H7.44A2.49,2.49,0,0,0,5,11v.71A2.48,2.48,0,0,0,7.08,14.2v2.87H6A1.06,1.06,0,0,0,5,18.13v7.1A1.77,1.77,0,0,0,6.73,27H25.18A1.78,1.78,0,0,0,27,25.23v-7.1a1.07,1.07,0,0,0-1.07-1.06H24.11V13.88a1.08,1.08,0,0,0-.71-1v-2a.92.92,0,0,1,.92-.92h.21a.92.92,0,0,0,.29,0v0A.71.71,0,0,0,25.53,10.68Zm0-4.25h.71V10h-.71Zm-4.26,7.45a.36.36,0,0,1,.36-.36h1.42a.36.36,0,0,1,.35.36V19.2H21.27ZM22,12.81V11.39h.71v1.42Zm-1.41,5V19.2H19.14V17.78Zm-4.26-5.33a1.78,1.78,0,1,1,2.36,1.68l-.23.08v5h-.71v-5l-.24-.08A1.77,1.77,0,0,1,16.31,12.45Zm2.83,9.23v.71a1.06,1.06,0,0,1-1.06,1.06H13.83a1.07,1.07,0,0,1-1.07-1.06v-.71a.4.4,0,0,1,0-.15.72.72,0,0,0,.68.51h5a.72.72,0,0,0,.67-.51A.4.4,0,0,1,19.14,21.68Zm-3.54-3.9H17V19.2H15.6Zm2.84,2.13v1.41h-5V19.91Zm-5-14.19h.71v.91a.91.91,0,0,1-.16.51h-.39a.91.91,0,0,1-.16-.51Zm0,2.63a.91.91,0,0,1,.16-.51H14a.91.91,0,0,1,.16.51v5.88h-.71Zm-.56,6.59h1.83a.15.15,0,0,1,.15.15.21.21,0,0,1,0,.1l-.46.46H13.26l-.46-.46a.18.18,0,0,1,0-.1A.15.15,0,0,1,12.91,14.94Zm-.15,2.21a.91.91,0,0,1,.45-.79h1.23a.91.91,0,0,1,.45.79V19.2H12.76Zm-.71.63V19.2H9.92V17.78Zm-6.38-6V11A1.77,1.77,0,0,1,7.08,9.3v2.09H9.92V9.3A1.77,1.77,0,0,1,11.34,11v.71a1.77,1.77,0,0,1-1.77,1.77H9.21V19.2H7.79V13.52H7.44A1.77,1.77,0,0,1,5.67,11.75Zm0,6.38A.35.35,0,0,1,6,17.78H7.08V19.2H5.67Zm0,1.78h7.09v.7H5.67Zm20.57,5.32a1.07,1.07,0,0,1-1.06,1.06H6.73a1.06,1.06,0,0,1-1.06-1.06V21.32h6.44a1.09,1.09,0,0,0-.06.36v.71a1.78,1.78,0,0,0,1.78,1.77h4.25a1.78,1.78,0,0,0,1.78-1.77v-.71a1.1,1.1,0,0,0-.07-.36h6.45Zm-2.13-7.45h1.77a.36.36,0,0,1,.36.35V19.2H24.11Zm2.13,2.13v.7h-7.1v-.7ZM24.78,9.16a.35.35,0,0,1-.25.1h-.21a1.62,1.62,0,0,0-1.61,1.42H22v-.44a2.4,2.4,0,0,0-2.39-2.4A2.26,2.26,0,0,0,18,8.51a.15.15,0,0,1-.11,0,.14.14,0,0,1-.14-.14.15.15,0,0,1,0-.11,4,4,0,0,1,2.82-1.16h3.94a.35.35,0,0,1,.25.1l0,0V9.12Z"/></svg>