<svg id="Layer_1" data-name="Layer 1" xmlns="http://www.w3.org/2000/svg" xmlns:xlink="http://www.w3.org/1999/xlink" viewBox="0 0 32 32"><defs><style>.cls-1{stroke:#fff;stroke-miterlimit:10;stroke-width:0.75px;fill:url(#linear-gradient);}</style><linearGradient id="linear-gradient" x1="2.36" y1="15.75" x2="29" y2="15.75" gradientUnits="userSpaceOnUse"><stop offset="0" stop-color="#44d9f2"/><stop offset="1" stop-color="#164bc1"/></linearGradient></defs><path class="cls-1" d="M28.11,7.89H26.24V6a.89.89,0,0,0-.76-.88,13.7,13.7,0,0,0-4.09.12,9.15,9.15,0,0,0-5.71,3.2A9.15,9.15,0,0,0,10,5.2a13.7,13.7,0,0,0-4.09-.12A.89.89,0,0,0,5.12,6V7.89H3.25a.89.89,0,0,0-.89.9V25.63a.9.9,0,0,0,1.19.85c.07,0,6.76-2.31,11.76,0a.87.87,0,0,0,.74,0c5-2.27,11.69,0,11.76,0a1,1,0,0,0,.3.05.87.87,0,0,0,.51-.17.89.89,0,0,0,.38-.73V8.79A.89.89,0,0,0,28.11,7.89Zm-24,16.55V9.68h1V21.59a.87.87,0,0,0,.31.67.89.89,0,0,0,.71.21c.05,0,3.94-.54,6.77,1.41A21.61,21.61,0,0,0,4.15,24.44Zm10.64-1.37A9.61,9.61,0,0,0,10,20.83a13.19,13.19,0,0,0-2.49-.22H6.91V6.78h.56c1.94,0,5.53.44,7.32,3.47Zm1.78-12.83c2-3.34,6.16-3.53,7.88-3.46V20.62a14.24,14.24,0,0,0-3.06.21,9.61,9.61,0,0,0-4.82,2.24Zm10.64,14.2a21.66,21.66,0,0,0-8.77-.56,10.76,10.76,0,0,1,6.77-1.41.87.87,0,0,0,.72-.21.9.9,0,0,0,.31-.67V9.68h1Z"/></svg>