<svg id="Layer_1" data-name="Layer 1" xmlns="http://www.w3.org/2000/svg" xmlns:xlink="http://www.w3.org/1999/xlink" viewBox="0 0 32 32"><defs><style>.cls-1{fill:url(#linear-gradient);}.cls-2{fill:url(#linear-gradient-2);}.cls-3{fill:url(#linear-gradient-3);}</style><linearGradient id="linear-gradient" x1="7.5" y1="21.51" x2="27" y2="21.51" gradientUnits="userSpaceOnUse"><stop offset="0" stop-color="#44d9f2"/><stop offset="1" stop-color="#164bc1"/></linearGradient><linearGradient id="linear-gradient-2" x1="10.21" y1="9.99" x2="24.29" y2="9.99" xlink:href="#linear-gradient"/><linearGradient id="linear-gradient-3" x1="21.34" y1="27.57" x2="22.31" y2="27.57" xlink:href="#linear-gradient"/></defs><path class="cls-1" d="M26.51,17.82H24a2.45,2.45,0,0,0,.07-.72,2.27,2.27,0,1,0-4.46.72H8a.49.49,0,0,0-.49.48v8a1.81,1.81,0,0,0,1.8,1.8H19.66a.48.48,0,0,0,.49-.48.49.49,0,0,0-.49-.49H17.74v-3a.49.49,0,0,0-.81-.36,1.3,1.3,0,1,1-.84-2.26,1.39,1.39,0,0,1,.86.36.49.49,0,0,0,.79-.38V18.79h2.68A.49.49,0,0,0,20.8,18,1.3,1.3,0,0,1,21.94,16,1.29,1.29,0,0,1,22.89,18a.49.49,0,0,0,.39.78H26v7.46a.83.83,0,0,1-.83.83H24a.49.49,0,0,0-.49.49.48.48,0,0,0,.49.48H25.2a1.81,1.81,0,0,0,1.8-1.8V18.3A.49.49,0,0,0,26.51,17.82Zm-9.74,2.83a2.11,2.11,0,0,0-.82-.11,2.27,2.27,0,0,0,.19,4.53,2.34,2.34,0,0,0,.63-.12v2.13H9.3a.83.83,0,0,1-.83-.83V18.79h8.3Z"/><path class="cls-2" d="M24.14,9.38,18.52,3.76a1.79,1.79,0,0,0-2.54,0L10.36,9.38a.48.48,0,0,0,0,.68l1.75,1.75a2.26,2.26,0,0,0-.59.42,2.28,2.28,0,0,0,3.22,3.22,2.26,2.26,0,0,0,.42-.59l1.75,1.75a.48.48,0,0,0,.68,0l2.24-2.23a.5.5,0,0,0-.27-.83,1.27,1.27,0,0,1-.73-.36,1.31,1.31,0,0,1,.07-1.9,1.29,1.29,0,0,1,2.13.79.49.49,0,0,0,.82.27l2.29-2.29A.48.48,0,0,0,24.14,9.38Zm-2.43,1.75a2,2,0,0,0-.46-.55,2.26,2.26,0,0,0-3,0,2.29,2.29,0,0,0-.12,3.31,2.35,2.35,0,0,0,.47.36l-1.36,1.36-2-2a.49.49,0,0,0-.83.32,1.3,1.3,0,1,1-2.22-1,1.31,1.31,0,0,1,.85-.38.49.49,0,0,0,.32-.83l-2-2,5.27-5.28a.85.85,0,0,1,1.18,0l5.28,5.28Z"/><path class="cls-3" d="M22.28,27.38a.49.49,0,1,0-.21.61A.5.5,0,0,0,22.28,27.38Z"/></svg>