<svg id="Layer_1" data-name="Layer 1" xmlns="http://www.w3.org/2000/svg" viewBox="0 0 29.15 29.15"><defs><style>.cls-1{fill:#44d9f2;}.cls-2{fill:none;}.cls-3{fill:#164bc1;}</style></defs><path class="cls-1" d="M21.29,8.56l-.54,0a4.52,4.52,0,0,0-.53.06,4.34,4.34,0,0,0-.52.09,7.94,7.94,0,0,0-2.4.93l-.23.14-.32.21-.15.12-.22.17c-.11.09-.22.18-.32.28s-.21.19-.31.29A8.48,8.48,0,0,0,7.4,3.69H2.56V7.34A8.49,8.49,0,0,0,11,15.86h2.42V25.6h2.41V19.52h3l.54,0,.18,0,.25,0h0a8.41,8.41,0,0,0,1.52-.35l.43-.16.62-.29.33-.18.33-.2a8.46,8.46,0,0,0,1.32-1.07,7.92,7.92,0,0,0,2.3-5.6v-3ZM11,13.43A6.06,6.06,0,0,1,5,7.34V6.13H7.4a6.06,6.06,0,0,1,6,6.08v1.22ZM24.31,11.6a5.5,5.5,0,0,1-.66,2.62l-.2.34a3.62,3.62,0,0,1-.22.32,7.34,7.34,0,0,1-.51.6,5.42,5.42,0,0,1-3.84,1.6h-3v-.61a6.11,6.11,0,0,1,.07-.86L16,15.3a.75.75,0,0,1,0-.16,2.58,2.58,0,0,1,.12-.42l.09-.25c0-.05,0-.09.05-.13a5.24,5.24,0,0,1,.23-.48,4.73,4.73,0,0,1,.35-.56l.15-.21A5.43,5.43,0,0,1,21.29,11h3Z"/><line class="cls-2" x1="13.47" y1="12.73" x2="15.72" y2="10.92"/><path class="cls-3" d="M21.29,8.57a4.87,4.87,0,0,0-.54,0l-.53.05a4.34,4.34,0,0,0-.52.09,8,8,0,0,0-2.41.93l-.23.15-.31.21-.15.11-.23.17-.32.28-.3.29c-1.26,1.4-2.19,2.43-2.32,2.56h0v2.44h0V25.6h2.42V19.52h3a5.79,5.79,0,0,0,.72,0l.25,0h0a8.41,8.41,0,0,0,1.52-.35l.43-.16.62-.29.33-.18.33-.2a8,8,0,0,0,1.32-1.07,7.92,7.92,0,0,0,2.3-5.59v-3Zm3,3a5.61,5.61,0,0,1-.65,2.61l-.2.34c-.08.11-.15.22-.23.32a7.34,7.34,0,0,1-.51.6,5.43,5.43,0,0,1-3.85,1.6h-3v-.61a4.91,4.91,0,0,1,.07-.86A1.55,1.55,0,0,1,16,15.3l0-.16c0-.14.08-.28.13-.42l.09-.25a.69.69,0,0,1,.05-.13,4.09,4.09,0,0,1,.23-.47,4.15,4.15,0,0,1,.35-.57l.15-.21A5.43,5.43,0,0,1,21.29,11h3Z"/><rect class="cls-2" x="0.15" y="0.15" width="29" height="29"/></svg>