<svg id="Layer_1" data-name="Layer 1" xmlns="http://www.w3.org/2000/svg" xmlns:xlink="http://www.w3.org/1999/xlink" viewBox="0 0 32 32"><defs><style>.cls-1{fill:url(#linear-gradient);}.cls-2{fill:url(#linear-gradient-2);}.cls-3{fill:url(#linear-gradient-3);}.cls-4{fill:url(#linear-gradient-4);}.cls-5{fill:url(#linear-gradient-5);}.cls-6{fill:url(#linear-gradient-6);}.cls-7{fill:url(#linear-gradient-7);}.cls-8{fill:url(#linear-gradient-8);}</style><linearGradient id="linear-gradient" x1="3.5" y1="17.28" x2="27" y2="17.28" gradientUnits="userSpaceOnUse"><stop offset="0" stop-color="#44d9f2"/><stop offset="1" stop-color="#164bc1"/></linearGradient><linearGradient id="linear-gradient-2" x1="16.26" y1="5.62" x2="17.89" y2="5.62" xlink:href="#linear-gradient"/><linearGradient id="linear-gradient-3" x1="20.26" y1="3.8" x2="21.16" y2="3.8" xlink:href="#linear-gradient"/><linearGradient id="linear-gradient-4" x1="17.88" y1="4.2" x2="19.1" y2="4.2" xlink:href="#linear-gradient"/><linearGradient id="linear-gradient-5" x1="22.34" y1="4.2" x2="23.56" y2="4.2" xlink:href="#linear-gradient"/><linearGradient id="linear-gradient-6" x1="23.56" y1="5.62" x2="25.19" y2="5.62" xlink:href="#linear-gradient"/><linearGradient id="linear-gradient-7" x1="12.2" y1="18.4" x2="21.94" y2="18.4" xlink:href="#linear-gradient"/><linearGradient id="linear-gradient-8" x1="13.83" y1="19.82" x2="17.48" y2="19.82" xlink:href="#linear-gradient"/></defs><path class="cls-1" d="M26.64,26.33l-4.07-4.07a6.58,6.58,0,0,0-1.1-8.64H22a.4.4,0,0,0,.4-.41v-1.4c.08-.19,1.24-3,1.24-3.06a2.51,2.51,0,0,0-.76-1.93,3.07,3.07,0,0,0-2.13-.69,3.06,3.06,0,0,0-2.12.69,2.51,2.51,0,0,0-.76,1.93c0,.05,1.24,3.06,1.24,3.06v.61a7.18,7.18,0,0,0-2.06-.3h-1.8a6.31,6.31,0,0,0-.62-1.65l1-1.07a.39.39,0,0,0,0-.55l-1.2-1.29a.42.42,0,0,0-.6,0l-.95,1a5.45,5.45,0,0,0-1.55-.66V6.54a.41.41,0,0,0-.4-.41H9.29a.4.4,0,0,0-.4.41V7.9a5.27,5.27,0,0,0-1.6.62l-1-1a.4.4,0,0,0-.56,0L4.46,8.73a.42.42,0,0,0,0,.59l1,1a5.18,5.18,0,0,0-.64,1.54H3.91a.41.41,0,0,0-.41.41v1.58a.4.4,0,0,0,.4.41h.92a5.18,5.18,0,0,0,.64,1.54l-1,1a.41.41,0,0,0,0,.58L5.7,18.5a.42.42,0,0,0,.57,0l1-1a5.54,5.54,0,0,0,1.6.62V19.8a.4.4,0,0,0,.41.4h1.44a6.6,6.6,0,0,0,8,4.74A6.52,6.52,0,0,0,20.82,24l4,4a1.26,1.26,0,0,0,1.59.19A1.24,1.24,0,0,0,26.64,26.33ZM21.46,12.72H20.21a.83.83,0,0,1-.24-.16v-.74h1.49ZM18.7,8.31a1.78,1.78,0,0,1,2-2,1.79,1.79,0,0,1,2,2c-.11.31-.67,1.78-1.09,2.9H19.79ZM10.58,18.4c0,.27,0,.54.05.91H9.79V18s-.17-.37-.36-.41a4.64,4.64,0,0,1-1.86-.74.41.41,0,0,0-.52,0l-.93.93-.65-.64.94-.94a.41.41,0,0,0,0-.51,4.74,4.74,0,0,1-.74-1.87c0-.19-.2-.34-.4-.25H4.4v-.9h.91a.41.41,0,0,0,.4-.34,4.64,4.64,0,0,1,.74-1.86.42.42,0,0,0,0-.52l-.94-.93.65-.64.93.93a.4.4,0,0,0,.52,0,4.79,4.79,0,0,1,1.86-.74c.19,0,.36-.4.36-.4V7h.89V8.26a.28.28,0,0,0,.24.4,4.79,4.79,0,0,1,1.86.74.4.4,0,0,0,.52,0l.93-.93.65.64L14,10a.41.41,0,0,0,0,.52,4.64,4.64,0,0,1,.74,1.86,6.39,6.39,0,0,0-1.63,1v-.22A2.84,2.84,0,1,0,10.17,16a2.75,2.75,0,0,0,.95-.17A6.48,6.48,0,0,0,10.58,18.4Zm1.62-5.27a2,2,0,1,1-2-2A2,2,0,0,1,12.2,13.13ZM16.41,24a5.68,5.68,0,0,1,.66-11.32h0A5.68,5.68,0,1,1,16.41,24Zm9.48,3.17a.42.42,0,0,1-.58,0l-3.95-3.95a6.35,6.35,0,0,0,.58-.58l3.94,3.94A.42.42,0,0,1,25.89,27.21Z"/><path class="cls-2" d="M16.3,5.24a.4.4,0,0,0,.18.54l.82.41a.4.4,0,1,0,.36-.72h0l-.81-.4A.41.41,0,0,0,16.3,5.24Z"/><path class="cls-3" d="M20.26,3.39V4.2a.51.51,0,0,0,.46.41.45.45,0,0,0,.44-.41V3.39a.45.45,0,0,0-.44-.4A.51.51,0,0,0,20.26,3.39Z"/><path class="cls-4" d="M18.11,3.43a.41.41,0,0,0-.18.55l.4.81a.41.41,0,0,0,.54.19.41.41,0,0,0,.19-.55h0l-.41-.81A.4.4,0,0,0,18.11,3.43Z"/><path class="cls-5" d="M22.79,3.62l-.4.81a.4.4,0,0,0,.18.54.41.41,0,0,0,.54-.17h0L23.52,4a.41.41,0,0,0-.18-.55.4.4,0,0,0-.54.18Z"/><path class="cls-6" d="M24.6,5.06l-.81.4A.41.41,0,0,0,23.6,6a.4.4,0,0,0,.54.18h0L25,5.78a.4.4,0,0,0,.19-.54.43.43,0,0,0-.55-.19Z"/><path class="cls-7" d="M17.07,13.53a4.87,4.87,0,1,0,4.87,4.87A4.89,4.89,0,0,0,17.07,13.53Zm0,8.93a4.06,4.06,0,1,1,4.06-4.06A4.06,4.06,0,0,1,17.07,22.46Z"/><path class="cls-8" d="M14.64,18.4a.41.41,0,0,0-.81,0,3.25,3.25,0,0,0,3.24,3.25.41.41,0,1,0,0-.81A2.45,2.45,0,0,1,14.64,18.4Z"/></svg>